<svg width="25" height="24" viewBox="0 0 25 24" fill="none" xmlns="http://www.w3.org/2000/svg">
<path d="M17.1667 1.5H8.16669C7.37104 1.5 6.60798 1.81607 6.04537 2.37868C5.48276 2.94129 5.16669 3.70435 5.16669 4.5V19.5C5.16669 20.2956 5.48276 21.0587 6.04537 21.6213C6.60798 22.1839 7.37104 22.5 8.16669 22.5H11.5522C11.1701 22.0373 10.8397 21.5344 10.5667 21H8.16669C7.76886 21 7.38733 20.842 7.10603 20.5607C6.82472 20.2794 6.66669 19.8978 6.66669 19.5V19.4955H9.97569C9.83757 19.0051 9.74517 18.5029 9.69969 17.9955H6.66669V4.5C6.66669 4.10218 6.82472 3.72064 7.10603 3.43934C7.38733 3.15804 7.76886 3 8.16669 3H17.1667C17.5645 3 17.946 3.15804 18.2273 3.43934C18.5087 3.72064 18.6667 4.10218 18.6667 4.5V9.033C19.1827 9.081 19.6827 9.1735 20.1667 9.3105V4.5C20.1667 3.70435 19.8506 2.94129 19.288 2.37868C18.7254 1.81607 17.9623 1.5 17.1667 1.5ZM9.66669 4.5C9.26886 4.5 8.88733 4.65804 8.60603 4.93934C8.32472 5.22064 8.16669 5.60218 8.16669 6V7.5C8.16669 7.89782 8.32472 8.27936 8.60603 8.56066C8.88733 8.84196 9.26886 9 9.66669 9H15.6667C16.0645 9 16.446 8.84196 16.7273 8.56066C17.0087 8.27936 17.1667 7.89782 17.1667 7.5V6C17.1667 5.60218 17.0087 5.22064 16.7273 4.93934C16.446 4.65804 16.0645 4.5 15.6667 4.5H9.66669ZM9.66669 6H15.6667V7.5H9.66669V6ZM24.6667 17.25C24.6667 19.0402 23.9555 20.7571 22.6897 22.023C21.4238 23.2888 19.7069 24 17.9167 24C16.1265 24 14.4096 23.2888 13.1437 22.023C11.8778 20.7571 11.1667 19.0402 11.1667 17.25C11.1667 15.4598 11.8778 13.7429 13.1437 12.477C14.4096 11.2112 16.1265 10.5 17.9167 10.5C19.7069 10.5 21.4238 11.2112 22.6897 12.477C23.9555 13.7429 24.6667 15.4598 24.6667 17.25ZM15.6667 19.4925C15.6667 19.6252 15.7018 19.7555 15.7686 19.8702C15.8354 19.9848 15.9315 20.0797 16.0469 20.1452C16.1624 20.2106 16.2931 20.2442 16.4258 20.2426C16.5585 20.241 16.6884 20.2042 16.8022 20.136L20.5522 17.8905C20.6634 17.8239 20.7555 17.7296 20.8194 17.6168C20.8833 17.5041 20.917 17.3766 20.917 17.247C20.917 17.1174 20.8833 16.9899 20.8194 16.8772C20.7555 16.7644 20.6634 16.6701 20.5522 16.6035L16.8022 14.358C16.6885 14.2899 16.5587 14.2531 16.4262 14.2514C16.2936 14.2497 16.163 14.2832 16.0476 14.3485C15.9322 14.4137 15.8361 14.5084 15.7692 14.6228C15.7023 14.7373 15.6669 14.8674 15.6667 15V19.4925Z" fill="#555555"/>
</svg>
