<svg width="24" height="25" viewBox="0 0 24 25" fill="none" xmlns="http://www.w3.org/2000/svg">
<path d="M4 15.5C4.24493 15.5 4.48134 15.59 4.66437 15.7527C4.84741 15.9155 4.96434 16.1397 4.993 16.383L5 16.5V19.5H9C9.25488 19.5003 9.50003 19.5979 9.68537 19.7728C9.8707 19.9478 9.98224 20.187 9.99717 20.4414C10.0121 20.6958 9.92933 20.9464 9.76574 21.1418C9.60215 21.3373 9.3701 21.4629 9.117 21.493L9 21.5H5C4.49542 21.5002 4.00943 21.3096 3.63945 20.9665C3.26947 20.6234 3.04284 20.1532 3.005 19.65L3 19.5V16.5C3 16.2348 3.10536 15.9804 3.29289 15.7929C3.48043 15.6054 3.73478 15.5 4 15.5ZM20 15.5C20.2652 15.5 20.5196 15.6054 20.7071 15.7929C20.8946 15.9804 21 16.2348 21 16.5V19.5C21 20.0304 20.7893 20.5391 20.4142 20.9142C20.0391 21.2893 19.5304 21.5 19 21.5H15C14.7348 21.5 14.4804 21.3946 14.2929 21.2071C14.1054 21.0196 14 20.7652 14 20.5C14 20.2348 14.1054 19.9804 14.2929 19.7929C14.4804 19.6054 14.7348 19.5 15 19.5H19V16.5C19 16.2348 19.1054 15.9804 19.2929 15.7929C19.4804 15.6054 19.7348 15.5 20 15.5ZM20 11.5C20.2549 11.5003 20.5 11.5979 20.6854 11.7728C20.8707 11.9478 20.9822 12.187 20.9972 12.4414C21.0121 12.6958 20.9293 12.9464 20.7657 13.1418C20.6021 13.3373 20.3701 13.4629 20.117 13.493L20 13.5H4C3.74512 13.4997 3.49997 13.4021 3.31463 13.2272C3.1293 13.0522 3.01777 12.813 3.00283 12.5586C2.98789 12.3042 3.07067 12.0536 3.23426 11.8582C3.39786 11.6627 3.6299 11.5371 3.883 11.507L4 11.5H20ZM9 3.5C9.26522 3.5 9.51957 3.60536 9.70711 3.79289C9.89464 3.98043 10 4.23478 10 4.5C10 4.76522 9.89464 5.01957 9.70711 5.20711C9.51957 5.39464 9.26522 5.5 9 5.5H5V8.5C5 8.76522 4.89464 9.01957 4.70711 9.20711C4.51957 9.39464 4.26522 9.5 4 9.5C3.73478 9.5 3.48043 9.39464 3.29289 9.20711C3.10536 9.01957 3 8.76522 3 8.5V5.5C3 4.96957 3.21071 4.46086 3.58579 4.08579C3.96086 3.71071 4.46957 3.5 5 3.5H9ZM19 3.5C19.5304 3.5 20.0391 3.71071 20.4142 4.08579C20.7893 4.46086 21 4.96957 21 5.5V8.5C21 8.76522 20.8946 9.01957 20.7071 9.20711C20.5196 9.39464 20.2652 9.5 20 9.5C19.7348 9.5 19.4804 9.39464 19.2929 9.20711C19.1054 9.01957 19 8.76522 19 8.5V5.5H15C14.7348 5.5 14.4804 5.39464 14.2929 5.20711C14.1054 5.01957 14 4.76522 14 4.5C14 4.23478 14.1054 3.98043 14.2929 3.79289C14.4804 3.60536 14.7348 3.5 15 3.5H19Z" fill="#171717"/>
</svg>
