<svg width="22" height="23" viewBox="0 0 22 23" fill="none" xmlns="http://www.w3.org/2000/svg">
<g clip-path="url(#clip0_2226_3741)">
<path fill-rule="evenodd" clip-rule="evenodd" d="M19.25 11.5H13.75C13.3853 11.5 13.0356 11.6449 12.7777 11.9027C12.5199 12.1606 12.375 12.5103 12.375 12.875V19.75C12.375 20.1147 12.5199 20.4644 12.7777 20.7223C13.0356 20.9801 13.3853 21.125 13.75 21.125H19.25C19.6147 21.125 19.9644 20.9801 20.2223 20.7223C20.4801 20.4644 20.625 20.1147 20.625 19.75V12.875C20.625 12.5103 20.4801 12.1606 20.2223 11.9027C19.9644 11.6449 19.6147 11.5 19.25 11.5ZM13.75 10.125C12.2375 10.125 11 11.3556 11 12.875V19.75C11 21.2625 12.2306 22.5 13.75 22.5H19.25C20.7625 22.5 22 21.2694 22 19.75V12.875C22 11.3625 20.7694 10.125 19.25 10.125H13.75Z" fill="#171717"/>
<path d="M13.75 13.5625C13.75 13.3802 13.8224 13.2053 13.9514 13.0764C14.0803 12.9474 14.2552 12.875 14.4375 12.875H18.5625C18.7448 12.875 18.9197 12.9474 19.0486 13.0764C19.1776 13.2053 19.25 13.3802 19.25 13.5625C19.25 13.7448 19.1776 13.9197 19.0486 14.0486C18.9197 14.1776 18.7448 14.25 18.5625 14.25H14.4375C14.2552 14.25 14.0803 14.1776 13.9514 14.0486C13.8224 13.9197 13.75 13.7448 13.75 13.5625ZM13.75 16.3125C13.75 16.1302 13.8224 15.9553 13.9514 15.8264C14.0803 15.6974 14.2552 15.625 14.4375 15.625H18.5625C18.7448 15.625 18.9197 15.6974 19.0486 15.8264C19.1776 15.9553 19.25 16.1302 19.25 16.3125C19.25 16.4948 19.1776 16.6697 19.0486 16.7986C18.9197 16.9276 18.7448 17 18.5625 17H14.4375C14.2552 17 14.0803 16.9276 13.9514 16.7986C13.8224 16.6697 13.75 16.4948 13.75 16.3125ZM13.75 19.0625C13.75 18.8802 13.8224 18.7053 13.9514 18.5764C14.0803 18.4474 14.2552 18.375 14.4375 18.375H17.1875C17.3698 18.375 17.5447 18.4474 17.6736 18.5764C17.8026 18.7053 17.875 18.8802 17.875 19.0625C17.875 19.2448 17.8026 19.4197 17.6736 19.5486C17.5447 19.6776 17.3698 19.75 17.1875 19.75H14.4375C14.2552 19.75 14.0803 19.6776 13.9514 19.5486C13.8224 19.4197 13.75 19.2448 13.75 19.0625Z" fill="#171717"/>
<path fill-rule="evenodd" clip-rule="evenodd" d="M12.375 4.62531C12.375 4.98998 12.2301 5.33972 11.9723 5.59758C11.7144 5.85544 11.3647 6.00031 11 6.00031H5.5C5.13533 6.00031 4.78559 5.85544 4.52773 5.59758C4.26987 5.33972 4.125 4.98998 4.125 4.62531H2.75C2.38533 4.62531 2.03559 4.77017 1.77773 5.02804C1.51987 5.2859 1.375 5.63564 1.375 6.00031V18.3753C1.375 18.74 1.51987 19.0897 1.77773 19.3476C2.03559 19.6054 2.38533 19.7503 2.75 19.7503H9.625V21.1253H2.75C1.2375 21.1253 0 19.8947 0 18.3753V6.00031C0 4.48781 1.23062 3.25031 2.75 3.25031H4.125C4.125 2.88564 4.26987 2.5359 4.52773 2.27804C4.78559 2.02017 5.13533 1.87531 5.5 1.87531H5.8685C6.10968 1.45788 6.45646 1.11126 6.874 0.870284C7.29155 0.629303 7.76515 0.502441 8.24725 0.502441C8.72934 0.502441 9.20295 0.629303 9.62049 0.870284C10.038 1.11126 10.3848 1.45788 10.626 1.87531H10.9945C11.3592 1.87531 11.7089 2.02017 11.9668 2.27804C12.2246 2.5359 12.3695 2.88564 12.3695 3.25031H13.7445C15.257 3.25031 16.4945 4.48093 16.4945 6.00031V8.75031H15.1195V6.00031C15.1195 5.63564 14.9746 5.2859 14.7168 5.02804C14.4589 4.77017 14.1092 4.62531 13.7445 4.62531H12.3695H12.375ZM5.87125 3.25031C6.11247 3.25044 6.34948 3.18711 6.55849 3.06668C6.7675 2.94625 6.94115 2.77295 7.062 2.56418C7.1825 2.35453 7.35616 2.18036 7.56546 2.05924C7.77476 1.93813 8.01231 1.87436 8.25412 1.87436C8.49594 1.87436 8.73348 1.93813 8.94279 2.05924C9.15209 2.18036 9.32575 2.35453 9.44625 2.56418C9.5671 2.77295 9.74075 2.94625 9.94976 3.06668C10.1588 3.18711 10.3958 3.25044 10.637 3.25031H10.6617C10.7529 3.25031 10.8404 3.28652 10.9048 3.35099C10.9693 3.41546 11.0055 3.50289 11.0055 3.59406V4.28156C11.0055 4.37273 10.9693 4.46016 10.9048 4.52463C10.8404 4.58909 10.7529 4.62531 10.6617 4.62531H5.84925C5.75808 4.62531 5.67065 4.58909 5.60618 4.52463C5.54172 4.46016 5.5055 4.37273 5.5055 4.28156V3.59406C5.5055 3.50289 5.54172 3.41546 5.60618 3.35099C5.67065 3.28652 5.75808 3.25031 5.84925 3.25031H5.87125Z" fill="#171717"/>
</g>
<defs>
<clipPath id="clip0_2226_3741">
<rect width="22" height="22" fill="white" transform="translate(0 0.5)"/>
</clipPath>
</defs>
</svg>
